HIERARCHY
ROOT Hips
{
	OFFSET 49.077702 -16.991816 96.850403
	CHANNELS 6 Xposition Yposition Zposition Xrotation Yrotation Zrotation
	JOINT spine
	{
		OFFSET 0.000000 -0.458069 7.965683
		CHANNELS 3 Xrotation Yrotation Zrotation
		JOINT spine1
		{
			OFFSET 0.000000 -0.000002 10.243103
			CHANNELS 3 Xrotation Yrotation Zrotation
			JOINT spine2
			{
				OFFSET 0.000000 -0.000002 9.814751
				CHANNELS 3 Xrotation Yrotation Zrotation
				JOINT Neck
				{
					OFFSET 0.000000 -1.201384 25.198601
					CHANNELS 3 Xrotation Yrotation Zrotation
					JOINT Head
					{
						OFFSET 0.000000 0.000000 7.613144
						CHANNELS 3 Xrotation Yrotation Zrotation
						End Site
						{
							OFFSET 0.000000 6.077326 18.428101
						}
					}
				}
				JOINT RightShoulder
				{
					OFFSET -4.132702 0.575449 10.599205
					CHANNELS 3 Xrotation Yrotation Zrotation
					JOINT RightArm
					{
						OFFSET 0.000000 -0.000002 13.901794
						CHANNELS 3 Xrotation Yrotation Zrotation
						JOINT RightArmRoll
						{
							OFFSET 0.000000 0.000000 7.017883
							CHANNELS 3 Xrotation Yrotation Zrotation
							JOINT RightForeArm
							{
								OFFSET 0.000000 -0.000004 20.440598
								CHANNELS 3 Xrotation Yrotation Zrotation
								JOINT RightForeArmRoll
								{
									OFFSET 0.000000 -0.000002 7.875168
									CHANNELS 3 Xrotation Yrotation Zrotation
									JOINT RightHand
									{
										OFFSET 0.000000 -0.000002 15.803696
										CHANNELS 3 Xrotation Yrotation Zrotation
										End Site
										{
											OFFSET 0.000000 0.000000 0.100006
										}
									}
								}
							}
						}
					}
				}
				JOINT LeftShoulder
				{
					OFFSET 4.132702 0.575449 10.599205
					CHANNELS 3 Xrotation Yrotation Zrotation
					JOINT LeftArm
					{
						OFFSET 0.000000 -0.000002 13.901794
						CHANNELS 3 Xrotation Yrotation Zrotation
						JOINT LeftArmRoll
						{
							OFFSET 0.000000 0.000000 7.017883
							CHANNELS 3 Xrotation Yrotation Zrotation
							JOINT LeftForeArm
							{
								OFFSET 0.000000 -0.000004 20.440598
								CHANNELS 3 Xrotation Yrotation Zrotation
								JOINT LeftForeArmRoll
								{
									OFFSET 0.000000 -0.000002 7.875168
									CHANNELS 3 Xrotation Yrotation Zrotation
									JOINT LeftHand
									{
										OFFSET 0.000000 -0.000002 15.803696
										CHANNELS 3 Xrotation Yrotation Zrotation
										End Site
										{
											OFFSET 0.000000 0.000000 0.100006
										}
									}
								}
							}
						}
					}
				}
			}
		}
	}
	JOINT RightUpLeg
	{
		OFFSET -7.060482 1.086100 -1.294701
		CHANNELS 3 Xrotation Yrotation Zrotation
		JOINT RightUpLegRoll
		{
			OFFSET 0.000000 -0.000003 18.530800
			CHANNELS 3 Xrotation Yrotation Zrotation
			JOINT RightLeg
			{
				OFFSET 0.000000 0.000003 -22.947601
				CHANNELS 3 Xrotation Yrotation Zrotation
				JOINT RightLegRoll
				{
					OFFSET 0.000000 -0.000004 23.022598
					CHANNELS 3 Xrotation Yrotation Zrotation
					JOINT RightFoot
					{
						OFFSET 0.000000 -0.000003 19.162506
						CHANNELS 3 Xrotation Yrotation Zrotation
						JOINT RightToeBase
						{
							OFFSET 0.000000 -0.000003 16.018799
							CHANNELS 3 Xrotation Yrotation Zrotation
							End Site
							{
								OFFSET 0.006790 0.894205 7.757812
							}
						}
					}
				}
			}
		}
	}
	JOINT LeftUpLeg
	{
		OFFSET 7.060482 1.086100 -1.294701
		CHANNELS 3 Xrotation Yrotation Zrotation
		JOINT LeftUpLegRoll
		{
			OFFSET 0.000000 -0.000003 18.530899
			CHANNELS 3 Xrotation Yrotation Zrotation
			JOINT LeftLeg
			{
				OFFSET 0.000000 -0.000004 22.947502
				CHANNELS 3 Xrotation Yrotation Zrotation
				JOINT LeftLegRoll
				{
					OFFSET 0.000000 -0.000004 23.235504
					CHANNELS 3 Xrotation Yrotation Zrotation
					JOINT LeftFoot
					{
						OFFSET 0.000000 -0.000004 18.949600
						CHANNELS 3 Xrotation Yrotation Zrotation
						JOINT LeftToeBase
						{
							OFFSET 0.000000 -0.000002 16.018799
							CHANNELS 3 Xrotation Yrotation Zrotation
							End Site
							{
								OFFSET -0.030430 0.894204 7.757812
							}
						}
					}
				}
			}
		}
	}
}
MOTION
Frames: 7
Frame Time: 0.041667
50.120598 -13.928018 96.854599 -7.366221 0.099867 -1.108139 0.137693 -0.065303 -0.328759 4.266943 -0.138018 -0.656552 5.911970 -0.145832 -0.654896 9.855319 7.567804 3.248115 4.110045 -5.494960 3.515730 -6.234600 -61.812024 -7.599890 -49.285767 -128.116959 -83.144029 -0.000005 0.000006 0.000001 96.540701 -0.192100 -8.457026 -0.000005 0.000010 -2.999989 -5.000005 -8.000076 -0.000032 -8.868554 62.554902 10.706886 -49.990353 119.774990 82.755617 0.000002 -0.000003 -0.000006 102.903746 -0.628894 11.846117 0.000017 -0.000004 3.000000 -5.000021 7.999936 -0.000023 6.803922 -173.140200 5.940010 -179.999991 0.000005 -1.366006 174.799116 -0.800694 -0.465883 -0.000003 0.000001 0.044771 68.625950 6.993597 1.903497 25.456935 -7.347094 0.000000 5.662948 172.708382 -3.955280 -0.000020 -0.000005 -1.286720 -7.141881 1.962437 0.290773 -0.000008 -0.000000 -0.119323 69.710188 -6.946626 -1.926178 25.456871 7.346068 0.000004 
50.113293 -13.927816 96.853706 -7.350700 0.090392 -1.109029 0.133939 -0.062580 -0.330356 4.260221 -0.132366 -0.659747 5.905249 -0.140222 -0.658155 9.889573 7.529647 3.232871 4.133349 -5.461525 3.502047 -6.266921 -61.835028 -7.639224 -49.381322 -128.003100 -83.178829 -0.000003 0.000007 0.000002 96.754008 -0.116319 -8.568138 -0.000005 0.000011 -2.999989 -5.000006 -8.000073 -0.000029 -8.838665 62.538687 10.671204 -50.015426 119.766575 82.505366 0.000001 -0.000001 -0.000009 102.987833 -0.631341 11.827863 0.000022 -0.000002 3.000001 -5.000021 7.999932 -0.000029 6.781940 -173.121007 5.950511 -179.999991 0.000005 -1.366007 174.792641 -0.809651 -0.465781 -0.000003 0.000001 0.044772 68.628054 6.993588 1.903460 25.456940 -7.347095 0.000001 5.642242 172.726031 -3.934506 -0.000020 -0.000005 -1.286720 -7.147595 1.955635 0.290778 -0.000007 0.000001 -0.119314 69.712203 -6.946626 -1.926252 25.456870 7.346067 0.000004 
50.114395 -13.932114 96.854599 -7.334816 0.080435 -1.109366 0.130090 -0.059739 -0.332003 4.253361 -0.126493 -0.663028 5.898387 -0.134391 -0.661503 9.924516 7.490390 3.217802 4.155115 -5.426517 3.488278 -6.298930 -61.858851 -7.678258 -49.474970 -127.890238 -83.210234 -0.000004 0.000009 0.000002 96.966973 -0.041963 -8.678440 -0.000002 0.000005 -2.999993 -5.000004 -8.000073 -0.000029 -8.808520 62.521871 10.635201 -50.035394 119.756876 82.249719 -0.000000 -0.000001 -0.000010 103.071209 -0.633962 11.810627 0.000018 -0.000004 3.000003 -5.000023 7.999932 -0.000025 6.759322 -173.100831 5.961489 -179.999991 0.000006 -1.366006 174.785661 -0.817601 -0.465609 -0.000003 0.000001 0.044771 68.630171 6.993612 1.903533 25.456936 -7.347097 0.000000 5.620730 172.745675 -3.912748 -0.000020 -0.000004 -1.286730 -7.153708 1.948505 0.290781 -0.000008 -0.000001 -0.119302 69.714546 -6.946633 -1.926106 25.456871 7.346067 0.000004 
50.129791 -13.919214 96.854591 -7.318685 0.070142 -1.109321 0.126183 -0.056818 -0.333686 4.246389 -0.120463 -0.666369 5.891425 -0.128405 -0.664913 9.959923 7.450358 3.202874 4.175818 -5.390409 3.474461 -6.330710 -61.883180 -7.717080 -49.569732 -127.776502 -83.242432 -0.000003 0.000006 -0.000003 97.179727 0.031244 -8.789963 -0.000002 0.000008 -2.999992 -5.000008 -8.000072 -0.000027 -8.778269 62.504864 10.599048 -50.050011 119.747081 81.988245 0.000002 -0.000001 -0.000004 103.154161 -0.636781 11.791416 0.000017 -0.000003 3.000001 -5.000025 7.999932 -0.000026 6.736270 -173.080614 5.972709 -179.999991 0.000006 -1.366004 174.778284 -0.826555 -0.465534 -0.000003 0.000001 0.044771 68.632500 6.993613 1.903487 25.456938 -7.347095 0.000001 5.598684 172.764321 -3.890565 -0.000020 -0.000005 -1.286730 -7.160090 1.941145 0.290784 -0.000008 0.000000 -0.119287 69.716977 -6.946611 -1.926251 25.456871 7.346068 0.000004 
50.118496 -13.923016 96.854309 -7.302423 0.059656 -1.109055 0.122237 -0.053850 -0.335390 4.239368 -0.114345 -0.669744 5.884395 -0.122331 -0.668358 9.995600 7.409871 3.188048 4.195906 -5.353678 3.460595 -6.362374 -61.907714 -7.755779 -49.664734 -127.662615 -83.274445 -0.000003 0.000007 -0.000000 97.392487 0.103331 -8.902669 -0.000003 0.000008 -2.999991 -5.000006 -8.000075 -0.000026 -8.747919 62.487543 10.562775 -50.062271 119.736085 81.724436 0.000003 -0.000003 -0.000006 103.236738 -0.639556 11.774211 0.000017 -0.000005 3.000001 -5.000029 7.999928 -0.000029 6.712966 -173.059440 5.984169 -179.999991 0.000005 -1.367003 174.770703 -0.835510 -0.465467 -0.000003 0.000000 0.044771 68.634918 6.993587 1.903529 25.456938 -7.347096 0.000002 5.576323 172.783951 -3.867981 -0.000020 -0.000005 -1.286730 -7.166621 1.933646 0.290784 -0.000008 -0.000000 -0.119271 69.719525 -6.946628 -1.926092 25.456871 7.346067 0.000004 
50.123394 -13.922813 96.857391 -7.286113 0.049123 -1.108730 0.118280 -0.050869 -0.337098 4.232327 -0.108204 -0.673127 5.877354 -0.116234 -0.671810 10.031347 7.369262 3.173288 4.215852 -5.316797 3.446690 -6.394067 -61.932426 -7.794526 -49.759243 -127.549343 -83.305563 -0.000002 0.000008 0.000000 97.605507 0.174605 -9.014598 -0.000005 0.000009 -2.999992 -5.000001 -8.000080 -0.000028 -8.717611 62.470228 10.526536 -50.073165 119.724351 81.459336 0.000001 0.000000 -0.000008 103.319302 -0.642317 11.756000 0.000020 -0.000004 3.000000 -5.000022 7.999932 -0.000025 6.689601 -173.038253 5.995654 -179.999991 0.000005 -1.367003 174.763080 -0.844464 -0.465403 -0.000003 0.000001 0.044771 68.637240 6.993589 1.903482 25.456938 -7.347098 0.000002 5.553869 172.803595 -3.845341 -0.000020 -0.000005 -1.286730 -7.173203 1.926117 0.290781 -0.000008 0.000001 -0.119253 69.722059 -6.946611 -1.926231 25.456870 7.346067 0.000004 
50.122997 -13.924213 96.857285 -7.269883 0.038685 -1.108505 0.114348 -0.047912 -0.338795 4.225307 -0.102106 -0.676490 5.870342 -0.110180 -0.675243 10.066961 7.328858 3.158560 4.236097 -5.280259 3.432781 -6.425877 -61.956933 -7.833387 -49.854251 -127.436044 -83.337413 -0.000004 0.000007 0.000002 97.818978 0.245240 -9.126756 -0.000003 0.000008 -2.999989 -5.000005 -8.000075 -0.000026 -8.687362 62.452996 10.490386 -50.082007 119.712903 81.192084 0.000001 -0.000002 -0.000005 103.402077 -0.645064 11.738790 0.000017 -0.000002 2.999999 -5.000026 7.999935 -0.000025 6.666356 -173.018049 6.006930 -179.999991 0.000005 -1.367002 174.755567 -0.853419 -0.465325 -0.000003 0.000001 0.044772 68.639556 6.993590 1.903535 25.456931 -7.347095 0.000000 5.531586 172.823225 -3.822867 -0.000020 -0.000005 -1.286730 -7.179706 1.918658 0.290779 -0.000008 -0.000000 -0.119237 69.724504 -6.946621 -1.926181 25.456870 7.346066 0.000004 
